<mxfile host="app.diagrams.net" modified="2024-04-21T14:59:59.023Z" agent="Mozilla/5.0 (Windows NT 10.0; Win64; x64) AppleWebKit/537.36 (KHTML, like Gecko) Chrome/123.0.0.0 Safari/537.36" etag="HHlb-b1_oswtUB8TqfZl" version="24.2.7" type="github">
  <diagram name="PÃ¡gina-1" id="kgIjsNO-8QdilRfuhx0_">
    <mxGraphModel dx="1050" dy="557" grid="1" gridSize="10" guides="1" tooltips="1" connect="1" arrows="1" fold="1" page="1" pageScale="1" pageWidth="827" pageHeight="1169" math="0" shadow="0">
      <root>
        <mxCell id="0" />
        <mxCell id="1" parent="0" />
        <mxCell id="QbRdo2RxUWattxg_y9Fa-1" value="Sistema" style="html=1;whiteSpace=wrap;" parent="1" vertex="1">
          <mxGeometry x="120" y="30" width="110" height="50" as="geometry" />
        </mxCell>
        <mxCell id="QbRdo2RxUWattxg_y9Fa-15" style="edgeStyle=orthogonalEdgeStyle;rounded=0;orthogonalLoop=1;jettySize=auto;html=1;endArrow=none;endFill=0;dashed=1;" parent="1" source="QbRdo2RxUWattxg_y9Fa-2" edge="1">
          <mxGeometry relative="1" as="geometry">
            <mxPoint x="413.5" y="190" as="targetPoint" />
          </mxGeometry>
        </mxCell>
        <mxCell id="QbRdo2RxUWattxg_y9Fa-2" value="Blog" style="html=1;whiteSpace=wrap;" parent="1" vertex="1">
          <mxGeometry x="358.5" y="30" width="110" height="50" as="geometry" />
        </mxCell>
        <mxCell id="QbRdo2RxUWattxg_y9Fa-6" style="edgeStyle=orthogonalEdgeStyle;rounded=0;orthogonalLoop=1;jettySize=auto;html=1;curved=0;exitX=1;exitY=0;exitDx=0;exitDy=5;exitPerimeter=0;" parent="1" source="QbRdo2RxUWattxg_y9Fa-4" target="QbRdo2RxUWattxg_y9Fa-4" edge="1">
          <mxGeometry relative="1" as="geometry">
            <mxPoint x="210" y="160" as="targetPoint" />
            <Array as="points">
              <mxPoint x="180" y="150" />
              <mxPoint x="230" y="150" />
              <mxPoint x="230" y="170" />
            </Array>
          </mxGeometry>
        </mxCell>
        <mxCell id="QbRdo2RxUWattxg_y9Fa-4" value="" style="html=1;points=[[0,0,0,0,5],[0,1,0,0,-5],[1,0,0,0,5],[1,1,0,0,-5]];perimeter=orthogonalPerimeter;outlineConnect=0;targetShapes=umlLifeline;portConstraint=eastwest;newEdgeStyle={&quot;curved&quot;:0,&quot;rounded&quot;:0};" parent="1" vertex="1">
          <mxGeometry x="170" y="130" width="10" height="300" as="geometry" />
        </mxCell>
        <mxCell id="QbRdo2RxUWattxg_y9Fa-5" value="criarNota(Texto,&amp;nbsp; idBlog)" style="html=1;verticalAlign=bottom;endArrow=block;curved=0;rounded=0;entryX=0;entryY=0.033;entryDx=0;entryDy=0;entryPerimeter=0;startArrow=oval;startFill=1;" parent="1" target="QbRdo2RxUWattxg_y9Fa-4" edge="1">
          <mxGeometry x="0.0001" y="10" width="80" relative="1" as="geometry">
            <mxPoint x="50" y="140" as="sourcePoint" />
            <mxPoint x="160" y="150" as="targetPoint" />
            <mxPoint as="offset" />
          </mxGeometry>
        </mxCell>
        <mxCell id="QbRdo2RxUWattxg_y9Fa-7" value="blog = BuscarBlogPorId(IdBlog)" style="text;html=1;align=center;verticalAlign=middle;resizable=0;points=[];autosize=1;strokeColor=none;fillColor=none;" parent="1" vertex="1">
          <mxGeometry x="170" y="130" width="190" height="30" as="geometry" />
        </mxCell>
        <mxCell id="QbRdo2RxUWattxg_y9Fa-8" value="" style="html=1;points=[[0,0,0,0,5],[0,1,0,0,-5],[1,0,0,0,5],[1,1,0,0,-5]];perimeter=orthogonalPerimeter;outlineConnect=0;targetShapes=umlLifeline;portConstraint=eastwest;newEdgeStyle={&quot;curved&quot;:0,&quot;rounded&quot;:0};" parent="1" vertex="1">
          <mxGeometry x="408.5" y="200" width="10" height="180" as="geometry" />
        </mxCell>
        <mxCell id="QbRdo2RxUWattxg_y9Fa-9" value="CriarNovaNota(Texto, DataCriacao)" style="html=1;verticalAlign=bottom;endArrow=block;curved=0;rounded=0;" parent="1" target="QbRdo2RxUWattxg_y9Fa-8" edge="1">
          <mxGeometry width="80" relative="1" as="geometry">
            <mxPoint x="180" y="230" as="sourcePoint" />
            <mxPoint x="400" y="230" as="targetPoint" />
          </mxGeometry>
        </mxCell>
        <mxCell id="QbRdo2RxUWattxg_y9Fa-11" value="novaNota = New Nota (Texto, DataCriacao)" style="html=1;verticalAlign=bottom;endArrow=block;curved=0;rounded=0;" parent="1" edge="1">
          <mxGeometry width="80" relative="1" as="geometry">
            <mxPoint x="418.5" y="264.55" as="sourcePoint" />
            <mxPoint x="650" y="264.54999999999995" as="targetPoint" />
          </mxGeometry>
        </mxCell>
        <mxCell id="QbRdo2RxUWattxg_y9Fa-12" value="" style="html=1;points=[[0,0,0,0,5],[0,1,0,0,-5],[1,0,0,0,5],[1,1,0,0,-5]];perimeter=orthogonalPerimeter;outlineConnect=0;targetShapes=umlLifeline;portConstraint=eastwest;newEdgeStyle={&quot;curved&quot;:0,&quot;rounded&quot;:0};" parent="1" vertex="1">
          <mxGeometry x="414" y="310" width="10" height="20" as="geometry" />
        </mxCell>
        <mxCell id="QbRdo2RxUWattxg_y9Fa-13" value="inserirNota (novaNota)" style="html=1;verticalAlign=bottom;endArrow=block;curved=0;rounded=0;" parent="1" target="QbRdo2RxUWattxg_y9Fa-8" edge="1">
          <mxGeometry x="-0.0463" y="40" width="80" relative="1" as="geometry">
            <mxPoint x="418.5" y="279.58" as="sourcePoint" />
            <mxPoint x="510" y="290" as="targetPoint" />
            <Array as="points">
              <mxPoint x="460" y="280" />
              <mxPoint x="460" y="290" />
              <mxPoint x="460" y="305" />
            </Array>
            <mxPoint as="offset" />
          </mxGeometry>
        </mxCell>
        <mxCell id="QbRdo2RxUWattxg_y9Fa-17" style="edgeStyle=orthogonalEdgeStyle;rounded=0;orthogonalLoop=1;jettySize=auto;html=1;entryX=0.026;entryY=-0.056;entryDx=0;entryDy=0;entryPerimeter=0;endArrow=none;endFill=0;dashed=1;" parent="1" source="QbRdo2RxUWattxg_y9Fa-1" target="QbRdo2RxUWattxg_y9Fa-7" edge="1">
          <mxGeometry relative="1" as="geometry" />
        </mxCell>
        <mxCell id="QbRdo2RxUWattxg_y9Fa-19" value="novaNota = Nota" style="html=1;whiteSpace=wrap;" parent="1" vertex="1">
          <mxGeometry x="650" y="240" width="110" height="50" as="geometry" />
        </mxCell>
      </root>
    </mxGraphModel>
  </diagram>
</mxfile>
